<svg width="165" height="165" viewBox="0 0 165 165" fill="none" xmlns="http://www.w3.org/2000/svg">
<circle cx="2.61609" cy="2.61621" r="2.61609" fill="#FFB3AF" fill-opacity="0.32"/>
<circle cx="20.368" cy="2.61609" r="2.61609" fill="#FFB3AF" fill-opacity="0.32"/>
<circle cx="38.12" cy="2.61609" r="2.61609" fill="#FFB3AF" fill-opacity="0.32"/>
<circle cx="55.8719" cy="2.61609" r="2.61609" fill="#FFB3AF" fill-opacity="0.32"/>
<circle cx="73.6239" cy="2.61609" r="2.61609" fill="#FFB3AF" fill-opacity="0.32"/>
<circle cx="91.3759" cy="2.61609" r="2.61609" fill="#FFB3AF" fill-opacity="0.32"/>
<circle cx="109.128" cy="2.61609" r="2.61609" fill="#FFB3AF" fill-opacity="0.32"/>
<circle cx="126.88" cy="2.61609" r="2.61609" fill="#FFB3AF" fill-opacity="0.32"/>
<circle cx="144.632" cy="2.61609" r="2.61609" fill="#FFB3AF" fill-opacity="0.32"/>
<circle cx="162.384" cy="2.61609" r="2.61609" fill="#FFB3AF" fill-opacity="0.32"/>
<circle cx="2.61609" cy="20.3682" r="2.61609" fill="#FFB3AF" fill-opacity="0.32"/>
<circle cx="20.368" cy="20.3682" r="2.61609" fill="#FFB3AF" fill-opacity="0.32"/>
<circle cx="38.12" cy="20.3682" r="2.61609" fill="#FFB3AF" fill-opacity="0.32"/>
<circle cx="55.8719" cy="20.3682" r="2.61609" fill="#FFB3AF" fill-opacity="0.32"/>
<circle cx="73.6239" cy="20.3682" r="2.61609" fill="#FFB3AF" fill-opacity="0.32"/>
<circle cx="91.3759" cy="20.3682" r="2.61609" fill="#FFB3AF" fill-opacity="0.32"/>
<circle cx="109.128" cy="20.3682" r="2.61609" fill="#FFB3AF" fill-opacity="0.32"/>
<circle cx="126.88" cy="20.3682" r="2.61609" fill="#FFB3AF" fill-opacity="0.32"/>
<circle cx="144.632" cy="20.3682" r="2.61609" fill="#FFB3AF" fill-opacity="0.32"/>
<circle cx="162.384" cy="20.3682" r="2.61609" fill="#FFB3AF" fill-opacity="0.32"/>
<circle cx="2.61609" cy="38.1201" r="2.61609" fill="#FFB3AF" fill-opacity="0.32"/>
<circle cx="20.368" cy="38.1201" r="2.61609" fill="#FFB3AF" fill-opacity="0.32"/>
<circle cx="38.12" cy="38.1201" r="2.61609" fill="#FFB3AF" fill-opacity="0.32"/>
<circle cx="55.8719" cy="38.1201" r="2.61609" fill="#FFB3AF" fill-opacity="0.32"/>
<circle cx="73.6239" cy="38.1201" r="2.61609" fill="#FFB3AF" fill-opacity="0.32"/>
<circle cx="91.3759" cy="38.1201" r="2.61609" fill="#FFB3AF" fill-opacity="0.32"/>
<circle cx="109.128" cy="38.1201" r="2.61609" fill="#FFB3AF" fill-opacity="0.32"/>
<circle cx="126.88" cy="38.1201" r="2.61609" fill="#FFB3AF" fill-opacity="0.32"/>
<circle cx="144.632" cy="38.1201" r="2.61609" fill="#FFB3AF" fill-opacity="0.32"/>
<circle cx="162.384" cy="38.1201" r="2.61609" fill="#FFB3AF" fill-opacity="0.32"/>
<circle cx="2.61609" cy="55.8721" r="2.61609" fill="#FFB3AF" fill-opacity="0.32"/>
<circle cx="20.368" cy="55.8721" r="2.61609" fill="#FFB3AF" fill-opacity="0.32"/>
<circle cx="38.12" cy="55.8721" r="2.61609" fill="#FFB3AF" fill-opacity="0.32"/>
<circle cx="55.8719" cy="55.8721" r="2.61609" fill="#FFB3AF" fill-opacity="0.32"/>
<circle cx="73.6239" cy="55.8721" r="2.61609" fill="#FFB3AF" fill-opacity="0.32"/>
<circle cx="91.3759" cy="55.8721" r="2.61609" fill="#FFB3AF" fill-opacity="0.32"/>
<circle cx="109.128" cy="55.8721" r="2.61609" fill="#FFB3AF" fill-opacity="0.32"/>
<circle cx="126.88" cy="55.8721" r="2.61609" fill="#FFB3AF" fill-opacity="0.32"/>
<circle cx="144.632" cy="55.8721" r="2.61609" fill="#FFB3AF" fill-opacity="0.32"/>
<circle cx="162.384" cy="55.8721" r="2.61609" fill="#FFB3AF" fill-opacity="0.32"/>
<circle cx="2.61609" cy="73.6241" r="2.61609" fill="#FFB3AF" fill-opacity="0.32"/>
<circle cx="20.368" cy="73.6241" r="2.61609" fill="#FFB3AF" fill-opacity="0.32"/>
<circle cx="38.12" cy="73.6241" r="2.61609" fill="#FFB3AF" fill-opacity="0.32"/>
<circle cx="55.8719" cy="73.6241" r="2.61609" fill="#FFB3AF" fill-opacity="0.32"/>
<circle cx="73.6239" cy="73.6241" r="2.61609" fill="#FFB3AF" fill-opacity="0.32"/>
<circle cx="91.3759" cy="73.6241" r="2.61609" fill="#FFB3AF" fill-opacity="0.32"/>
<circle cx="109.128" cy="73.6241" r="2.61609" fill="#FFB3AF" fill-opacity="0.32"/>
<circle cx="126.88" cy="73.6241" r="2.61609" fill="#FFB3AF" fill-opacity="0.32"/>
<circle cx="144.632" cy="73.6241" r="2.61609" fill="#FFB3AF" fill-opacity="0.32"/>
<circle cx="162.384" cy="73.6241" r="2.61609" fill="#FFB3AF" fill-opacity="0.32"/>
<circle cx="2.61609" cy="91.3762" r="2.61609" fill="#FFB3AF" fill-opacity="0.32"/>
<circle cx="20.368" cy="91.3762" r="2.61609" fill="#FFB3AF" fill-opacity="0.32"/>
<circle cx="38.12" cy="91.3762" r="2.61609" fill="#FFB3AF" fill-opacity="0.32"/>
<circle cx="55.8719" cy="91.3762" r="2.61609" fill="#FFB3AF" fill-opacity="0.32"/>
<circle cx="73.6239" cy="91.3762" r="2.61609" fill="#FFB3AF" fill-opacity="0.32"/>
<circle cx="91.3759" cy="91.3762" r="2.61609" fill="#FFB3AF" fill-opacity="0.32"/>
<circle cx="109.128" cy="91.3762" r="2.61609" fill="#FFB3AF" fill-opacity="0.32"/>
<circle cx="126.88" cy="91.3762" r="2.61609" fill="#FFB3AF" fill-opacity="0.32"/>
<circle cx="144.632" cy="91.3762" r="2.61609" fill="#FFB3AF" fill-opacity="0.32"/>
<circle cx="162.384" cy="91.3762" r="2.61609" fill="#FFB3AF" fill-opacity="0.32"/>
<circle cx="2.61609" cy="109.128" r="2.61609" fill="#FFB3AF" fill-opacity="0.32"/>
<circle cx="20.368" cy="109.128" r="2.61609" fill="#FFB3AF" fill-opacity="0.32"/>
<circle cx="38.12" cy="109.128" r="2.61609" fill="#FFB3AF" fill-opacity="0.32"/>
<circle cx="55.8719" cy="109.128" r="2.61609" fill="#FFB3AF" fill-opacity="0.32"/>
<circle cx="73.6239" cy="109.128" r="2.61609" fill="#FFB3AF" fill-opacity="0.32"/>
<circle cx="91.3759" cy="109.128" r="2.61609" fill="#FFB3AF" fill-opacity="0.32"/>
<circle cx="109.128" cy="109.128" r="2.61609" fill="#FFB3AF" fill-opacity="0.32"/>
<circle cx="126.88" cy="109.128" r="2.61609" fill="#FFB3AF" fill-opacity="0.32"/>
<circle cx="144.632" cy="109.128" r="2.61609" fill="#FFB3AF" fill-opacity="0.32"/>
<circle cx="162.384" cy="109.128" r="2.61609" fill="#FFB3AF" fill-opacity="0.32"/>
<circle cx="2.61609" cy="126.88" r="2.61609" fill="#FFB3AF" fill-opacity="0.32"/>
<circle cx="20.368" cy="126.88" r="2.61609" fill="#FFB3AF" fill-opacity="0.32"/>
<circle cx="38.12" cy="126.88" r="2.61609" fill="#FFB3AF" fill-opacity="0.32"/>
<circle cx="55.8719" cy="126.88" r="2.61609" fill="#FFB3AF" fill-opacity="0.32"/>
<circle cx="73.6239" cy="126.88" r="2.61609" fill="#FFB3AF" fill-opacity="0.32"/>
<circle cx="91.3759" cy="126.88" r="2.61609" fill="#FFB3AF" fill-opacity="0.32"/>
<circle cx="109.128" cy="126.88" r="2.61609" fill="#FFB3AF" fill-opacity="0.32"/>
<circle cx="126.88" cy="126.88" r="2.61609" fill="#FFB3AF" fill-opacity="0.32"/>
<circle cx="144.632" cy="126.88" r="2.61609" fill="#FFB3AF" fill-opacity="0.32"/>
<circle cx="162.384" cy="126.88" r="2.61609" fill="#FFB3AF" fill-opacity="0.32"/>
<circle cx="2.61609" cy="144.632" r="2.61609" fill="#FFB3AF" fill-opacity="0.32"/>
<circle cx="20.368" cy="144.632" r="2.61609" fill="#FFB3AF" fill-opacity="0.32"/>
<circle cx="38.12" cy="144.632" r="2.61609" fill="#FFB3AF" fill-opacity="0.32"/>
<circle cx="55.8719" cy="144.632" r="2.61609" fill="#FFB3AF" fill-opacity="0.32"/>
<circle cx="73.6239" cy="144.632" r="2.61609" fill="#FFB3AF" fill-opacity="0.32"/>
<circle cx="91.3759" cy="144.632" r="2.61609" fill="#FFB3AF" fill-opacity="0.32"/>
<circle cx="109.128" cy="144.632" r="2.61609" fill="#FFB3AF" fill-opacity="0.32"/>
<circle cx="126.88" cy="144.632" r="2.61609" fill="#FFB3AF" fill-opacity="0.32"/>
<circle cx="144.632" cy="144.632" r="2.61609" fill="#FFB3AF" fill-opacity="0.32"/>
<circle cx="162.384" cy="144.632" r="2.61609" fill="#FFB3AF" fill-opacity="0.32"/>
<circle cx="2.61609" cy="162.384" r="2.61609" fill="#FFB3AF" fill-opacity="0.32"/>
<circle cx="20.368" cy="162.384" r="2.61609" fill="#FFB3AF" fill-opacity="0.32"/>
<circle cx="38.12" cy="162.384" r="2.61609" fill="#FFB3AF" fill-opacity="0.32"/>
<circle cx="55.8719" cy="162.384" r="2.61609" fill="#FFB3AF" fill-opacity="0.32"/>
<circle cx="73.6239" cy="162.384" r="2.61609" fill="#FFB3AF" fill-opacity="0.32"/>
<circle cx="91.3759" cy="162.384" r="2.61609" fill="#FFB3AF" fill-opacity="0.32"/>
<circle cx="109.128" cy="162.384" r="2.61609" fill="#FFB3AF" fill-opacity="0.32"/>
<circle cx="126.88" cy="162.384" r="2.61609" fill="#FFB3AF" fill-opacity="0.32"/>
<circle cx="144.632" cy="162.384" r="2.61609" fill="#FFB3AF" fill-opacity="0.32"/>
<circle cx="162.384" cy="162.384" r="2.61609" fill="#FFB3AF" fill-opacity="0.32"/>
</svg>
