<svg width="105" height="105" viewBox="0 0 105 105" fill="none" xmlns="http://www.w3.org/2000/svg">
    <g clip-path="url(#clip0)">
        <path d="M82.4246 30.6635C78.7743 12.9237 61.434 1.50205 43.6942 5.1524C28.5039 8.27826 17.5803 21.6177 17.5107 37.1259C17.5107 37.8648 17.5412 38.6213 17.6068 39.4214C6.80023 40.5653 -1.03296 50.253 0.110923 61.0596C1.17118 71.076 9.62438 78.6745 19.6968 78.6647H21.9923C21.9399 77.9389 21.8831 77.2174 21.8831 76.4784C21.8831 60.7818 34.6077 48.0571 50.3044 48.0571C66.0011 48.0571 78.7255 60.7818 78.7255 76.4784C78.7255 77.2172 78.6687 77.9387 78.6162 78.6647H80.9118C94.1789 78.701 104.964 67.9751 105 54.7078C105.035 41.9775 95.1322 31.4304 82.4246 30.6635Z" fill="#DBDBDB"/>
        <path d="M50.3043 100.527C63.586 100.527 74.353 89.7601 74.353 76.4783C74.353 63.1966 63.586 52.4297 50.3043 52.4297C37.0226 52.4297 26.2556 63.1966 26.2556 76.4783C26.2556 89.7601 37.0226 100.527 50.3043 100.527Z" fill="#989898"/>
        <path d="M50.3042 91.7822C49.0968 91.7822 48.1179 90.8033 48.1179 89.5959V63.3609C48.1179 62.1535 49.0968 61.1746 50.3042 61.1746C51.5117 61.1746 52.4906 62.1535 52.4906 63.3609V89.5959C52.4904 90.8033 51.5117 91.7822 50.3042 91.7822Z" fill="#FAFAFA"/>
        <path d="M59.0492 74.2928C58.469 74.2938 57.9121 74.0642 57.5014 73.6543L50.3042 66.4528L43.107 73.6543C42.2385 74.4932 40.8544 74.469 40.0155 73.6006C39.1971 72.7533 39.1971 71.4102 40.0155 70.5629L48.7606 61.8178C49.6143 60.9644 50.9982 60.9644 51.852 61.8178L60.5971 70.5629C61.4495 71.418 61.4475 72.8023 60.5922 73.6547C60.1827 74.0632 59.6278 74.2926 59.0492 74.2928Z" fill="#FAFAFA"/>
    </g>
    <defs>
        <clipPath id="clip0">
            <rect width="105" height="105" fill="white"/>
        </clipPath>
    </defs>
</svg>