<svg width="1440" height="350" viewBox="0 0 1440 350" fill="none" xmlns="http://www.w3.org/2000/svg">
<mask id="mask0" mask-type="alpha" maskUnits="userSpaceOnUse" x="0" y="0" width="1440" height="350">
<rect width="1440" height="350" fill="#ED5D56"/>
</mask>
<g mask="url(#mask0)">
<circle cx="42.6161" cy="34.6162" r="2.61609" fill="#FFB3AF" fill-opacity="0.32"/>
<circle cx="60.368" cy="34.6161" r="2.61609" fill="#FFB3AF" fill-opacity="0.32"/>
<circle cx="78.12" cy="34.6161" r="2.61609" fill="#FFB3AF" fill-opacity="0.32"/>
<circle cx="95.8719" cy="34.6161" r="2.61609" fill="#FFB3AF" fill-opacity="0.32"/>
<circle cx="113.624" cy="34.6161" r="2.61609" fill="#FFB3AF" fill-opacity="0.32"/>
<circle cx="131.376" cy="34.6161" r="2.61609" fill="#FFB3AF" fill-opacity="0.32"/>
<circle cx="149.128" cy="34.6161" r="2.61609" fill="#FFB3AF" fill-opacity="0.32"/>
<circle cx="166.88" cy="34.6161" r="2.61609" fill="#FFB3AF" fill-opacity="0.32"/>
<circle cx="184.632" cy="34.6161" r="2.61609" fill="#FFB3AF" fill-opacity="0.32"/>
<circle cx="202.384" cy="34.6161" r="2.61609" fill="#FFB3AF" fill-opacity="0.32"/>
<circle cx="42.6161" cy="52.3682" r="2.61609" fill="#FFB3AF" fill-opacity="0.32"/>
<circle cx="60.368" cy="52.3682" r="2.61609" fill="#FFB3AF" fill-opacity="0.32"/>
<circle cx="78.12" cy="52.3682" r="2.61609" fill="#FFB3AF" fill-opacity="0.32"/>
<circle cx="95.8719" cy="52.3682" r="2.61609" fill="#FFB3AF" fill-opacity="0.32"/>
<circle cx="113.624" cy="52.3682" r="2.61609" fill="#FFB3AF" fill-opacity="0.32"/>
<circle cx="131.376" cy="52.3682" r="2.61609" fill="#FFB3AF" fill-opacity="0.32"/>
<circle cx="149.128" cy="52.3682" r="2.61609" fill="#FFB3AF" fill-opacity="0.32"/>
<circle cx="166.88" cy="52.3682" r="2.61609" fill="#FFB3AF" fill-opacity="0.32"/>
<circle cx="184.632" cy="52.3682" r="2.61609" fill="#FFB3AF" fill-opacity="0.32"/>
<circle cx="202.384" cy="52.3682" r="2.61609" fill="#FFB3AF" fill-opacity="0.32"/>
<circle cx="42.6161" cy="70.1201" r="2.61609" fill="#FFB3AF" fill-opacity="0.32"/>
<circle cx="60.368" cy="70.1201" r="2.61609" fill="#FFB3AF" fill-opacity="0.32"/>
<circle cx="78.12" cy="70.1201" r="2.61609" fill="#FFB3AF" fill-opacity="0.32"/>
<circle cx="95.8719" cy="70.1201" r="2.61609" fill="#FFB3AF" fill-opacity="0.32"/>
<circle cx="113.624" cy="70.1201" r="2.61609" fill="#FFB3AF" fill-opacity="0.32"/>
<circle cx="131.376" cy="70.1201" r="2.61609" fill="#FFB3AF" fill-opacity="0.32"/>
<circle cx="149.128" cy="70.1201" r="2.61609" fill="#FFB3AF" fill-opacity="0.32"/>
<circle cx="166.88" cy="70.1201" r="2.61609" fill="#FFB3AF" fill-opacity="0.32"/>
<circle cx="184.632" cy="70.1201" r="2.61609" fill="#FFB3AF" fill-opacity="0.32"/>
<circle cx="202.384" cy="70.1201" r="2.61609" fill="#FFB3AF" fill-opacity="0.32"/>
<circle cx="42.6161" cy="87.8721" r="2.61609" fill="#FFB3AF" fill-opacity="0.32"/>
<circle cx="60.368" cy="87.8721" r="2.61609" fill="#FFB3AF" fill-opacity="0.32"/>
<circle cx="78.12" cy="87.8721" r="2.61609" fill="#FFB3AF" fill-opacity="0.32"/>
<circle cx="95.8719" cy="87.8721" r="2.61609" fill="#FFB3AF" fill-opacity="0.32"/>
<circle cx="113.624" cy="87.8721" r="2.61609" fill="#FFB3AF" fill-opacity="0.32"/>
<circle cx="131.376" cy="87.8721" r="2.61609" fill="#FFB3AF" fill-opacity="0.32"/>
<circle cx="149.128" cy="87.8721" r="2.61609" fill="#FFB3AF" fill-opacity="0.32"/>
<circle cx="166.88" cy="87.8721" r="2.61609" fill="#FFB3AF" fill-opacity="0.32"/>
<circle cx="184.632" cy="87.8721" r="2.61609" fill="#FFB3AF" fill-opacity="0.32"/>
<circle cx="202.384" cy="87.8721" r="2.61609" fill="#FFB3AF" fill-opacity="0.32"/>
<circle cx="42.6161" cy="105.624" r="2.61609" fill="#FFB3AF" fill-opacity="0.32"/>
<circle cx="60.368" cy="105.624" r="2.61609" fill="#FFB3AF" fill-opacity="0.32"/>
<circle cx="78.12" cy="105.624" r="2.61609" fill="#FFB3AF" fill-opacity="0.32"/>
<circle cx="95.8719" cy="105.624" r="2.61609" fill="#FFB3AF" fill-opacity="0.32"/>
<circle cx="113.624" cy="105.624" r="2.61609" fill="#FFB3AF" fill-opacity="0.32"/>
<circle cx="131.376" cy="105.624" r="2.61609" fill="#FFB3AF" fill-opacity="0.32"/>
<circle cx="149.128" cy="105.624" r="2.61609" fill="#FFB3AF" fill-opacity="0.32"/>
<circle cx="166.88" cy="105.624" r="2.61609" fill="#FFB3AF" fill-opacity="0.32"/>
<circle cx="184.632" cy="105.624" r="2.61609" fill="#FFB3AF" fill-opacity="0.32"/>
<circle cx="202.384" cy="105.624" r="2.61609" fill="#FFB3AF" fill-opacity="0.32"/>
<circle cx="42.6161" cy="123.376" r="2.61609" fill="#FFB3AF" fill-opacity="0.32"/>
<circle cx="60.368" cy="123.376" r="2.61609" fill="#FFB3AF" fill-opacity="0.32"/>
<circle cx="78.12" cy="123.376" r="2.61609" fill="#FFB3AF" fill-opacity="0.32"/>
<circle cx="95.8719" cy="123.376" r="2.61609" fill="#FFB3AF" fill-opacity="0.32"/>
<circle cx="113.624" cy="123.376" r="2.61609" fill="#FFB3AF" fill-opacity="0.32"/>
<circle cx="131.376" cy="123.376" r="2.61609" fill="#FFB3AF" fill-opacity="0.32"/>
<circle cx="149.128" cy="123.376" r="2.61609" fill="#FFB3AF" fill-opacity="0.32"/>
<circle cx="166.88" cy="123.376" r="2.61609" fill="#FFB3AF" fill-opacity="0.32"/>
<circle cx="184.632" cy="123.376" r="2.61609" fill="#FFB3AF" fill-opacity="0.32"/>
<circle cx="202.384" cy="123.376" r="2.61609" fill="#FFB3AF" fill-opacity="0.32"/>
<circle cx="42.6161" cy="141.128" r="2.61609" fill="#FFB3AF" fill-opacity="0.32"/>
<circle cx="60.368" cy="141.128" r="2.61609" fill="#FFB3AF" fill-opacity="0.32"/>
<circle cx="78.12" cy="141.128" r="2.61609" fill="#FFB3AF" fill-opacity="0.32"/>
<circle cx="95.8719" cy="141.128" r="2.61609" fill="#FFB3AF" fill-opacity="0.32"/>
<circle cx="113.624" cy="141.128" r="2.61609" fill="#FFB3AF" fill-opacity="0.32"/>
<circle cx="131.376" cy="141.128" r="2.61609" fill="#FFB3AF" fill-opacity="0.32"/>
<circle cx="149.128" cy="141.128" r="2.61609" fill="#FFB3AF" fill-opacity="0.32"/>
<circle cx="166.88" cy="141.128" r="2.61609" fill="#FFB3AF" fill-opacity="0.32"/>
<circle cx="184.632" cy="141.128" r="2.61609" fill="#FFB3AF" fill-opacity="0.32"/>
<circle cx="202.384" cy="141.128" r="2.61609" fill="#FFB3AF" fill-opacity="0.32"/>
<circle cx="42.6161" cy="158.88" r="2.61609" fill="#FFB3AF" fill-opacity="0.32"/>
<circle cx="60.368" cy="158.88" r="2.61609" fill="#FFB3AF" fill-opacity="0.32"/>
<circle cx="78.12" cy="158.88" r="2.61609" fill="#FFB3AF" fill-opacity="0.32"/>
<circle cx="95.8719" cy="158.88" r="2.61609" fill="#FFB3AF" fill-opacity="0.32"/>
<circle cx="113.624" cy="158.88" r="2.61609" fill="#FFB3AF" fill-opacity="0.32"/>
<circle cx="131.376" cy="158.88" r="2.61609" fill="#FFB3AF" fill-opacity="0.32"/>
<circle cx="149.128" cy="158.88" r="2.61609" fill="#FFB3AF" fill-opacity="0.32"/>
<circle cx="166.88" cy="158.88" r="2.61609" fill="#FFB3AF" fill-opacity="0.32"/>
<circle cx="184.632" cy="158.88" r="2.61609" fill="#FFB3AF" fill-opacity="0.32"/>
<circle cx="202.384" cy="158.88" r="2.61609" fill="#FFB3AF" fill-opacity="0.32"/>
<circle cx="42.6161" cy="176.632" r="2.61609" fill="#FFB3AF" fill-opacity="0.32"/>
<circle cx="60.368" cy="176.632" r="2.61609" fill="#FFB3AF" fill-opacity="0.32"/>
<circle cx="78.12" cy="176.632" r="2.61609" fill="#FFB3AF" fill-opacity="0.32"/>
<circle cx="95.8719" cy="176.632" r="2.61609" fill="#FFB3AF" fill-opacity="0.32"/>
<circle cx="113.624" cy="176.632" r="2.61609" fill="#FFB3AF" fill-opacity="0.32"/>
<circle cx="131.376" cy="176.632" r="2.61609" fill="#FFB3AF" fill-opacity="0.32"/>
<circle cx="149.128" cy="176.632" r="2.61609" fill="#FFB3AF" fill-opacity="0.32"/>
<circle cx="166.88" cy="176.632" r="2.61609" fill="#FFB3AF" fill-opacity="0.32"/>
<circle cx="184.632" cy="176.632" r="2.61609" fill="#FFB3AF" fill-opacity="0.32"/>
<circle cx="202.384" cy="176.632" r="2.61609" fill="#FFB3AF" fill-opacity="0.32"/>
<circle cx="42.6161" cy="194.384" r="2.61609" fill="#FFB3AF" fill-opacity="0.32"/>
<circle cx="60.368" cy="194.384" r="2.61609" fill="#FFB3AF" fill-opacity="0.32"/>
<circle cx="78.12" cy="194.384" r="2.61609" fill="#FFB3AF" fill-opacity="0.32"/>
<circle cx="95.8719" cy="194.384" r="2.61609" fill="#FFB3AF" fill-opacity="0.32"/>
<circle cx="113.624" cy="194.384" r="2.61609" fill="#FFB3AF" fill-opacity="0.32"/>
<circle cx="131.376" cy="194.384" r="2.61609" fill="#FFB3AF" fill-opacity="0.32"/>
<circle cx="149.128" cy="194.384" r="2.61609" fill="#FFB3AF" fill-opacity="0.32"/>
<circle cx="166.88" cy="194.384" r="2.61609" fill="#FFB3AF" fill-opacity="0.32"/>
<circle cx="184.632" cy="194.384" r="2.61609" fill="#FFB3AF" fill-opacity="0.32"/>
<circle cx="202.384" cy="194.384" r="2.61609" fill="#FFB3AF" fill-opacity="0.32"/>
<circle cx="1323.62" cy="159.616" r="2.61609" fill="#FFB3AF" fill-opacity="0.32"/>
<circle cx="1341.37" cy="159.616" r="2.61609" fill="#FFB3AF" fill-opacity="0.32"/>
<circle cx="1359.12" cy="159.616" r="2.61609" fill="#FFB3AF" fill-opacity="0.32"/>
<circle cx="1376.87" cy="159.616" r="2.61609" fill="#FFB3AF" fill-opacity="0.32"/>
<circle cx="1394.62" cy="159.616" r="2.61609" fill="#FFB3AF" fill-opacity="0.32"/>
<circle cx="1412.38" cy="159.616" r="2.61609" fill="#FFB3AF" fill-opacity="0.32"/>
<circle cx="1430.13" cy="159.616" r="2.61609" fill="#FFB3AF" fill-opacity="0.32"/>
<circle cx="1323.62" cy="177.368" r="2.61609" fill="#FFB3AF" fill-opacity="0.32"/>
<circle cx="1341.37" cy="177.368" r="2.61609" fill="#FFB3AF" fill-opacity="0.32"/>
<circle cx="1359.12" cy="177.368" r="2.61609" fill="#FFB3AF" fill-opacity="0.32"/>
<circle cx="1376.87" cy="177.368" r="2.61609" fill="#FFB3AF" fill-opacity="0.32"/>
<circle cx="1394.62" cy="177.368" r="2.61609" fill="#FFB3AF" fill-opacity="0.32"/>
<circle cx="1412.38" cy="177.368" r="2.61609" fill="#FFB3AF" fill-opacity="0.32"/>
<circle cx="1430.13" cy="177.368" r="2.61609" fill="#FFB3AF" fill-opacity="0.32"/>
<circle cx="1323.62" cy="195.12" r="2.61609" fill="#FFB3AF" fill-opacity="0.32"/>
<circle cx="1341.37" cy="195.12" r="2.61609" fill="#FFB3AF" fill-opacity="0.32"/>
<circle cx="1359.12" cy="195.12" r="2.61609" fill="#FFB3AF" fill-opacity="0.32"/>
<circle cx="1376.87" cy="195.12" r="2.61609" fill="#FFB3AF" fill-opacity="0.32"/>
<circle cx="1394.62" cy="195.12" r="2.61609" fill="#FFB3AF" fill-opacity="0.32"/>
<circle cx="1412.38" cy="195.12" r="2.61609" fill="#FFB3AF" fill-opacity="0.32"/>
<circle cx="1430.13" cy="195.12" r="2.61609" fill="#FFB3AF" fill-opacity="0.32"/>
<circle cx="1323.62" cy="212.872" r="2.61609" fill="#FFB3AF" fill-opacity="0.32"/>
<circle cx="1341.37" cy="212.872" r="2.61609" fill="#FFB3AF" fill-opacity="0.32"/>
<circle cx="1359.12" cy="212.872" r="2.61609" fill="#FFB3AF" fill-opacity="0.32"/>
<circle cx="1376.87" cy="212.872" r="2.61609" fill="#FFB3AF" fill-opacity="0.32"/>
<circle cx="1394.62" cy="212.872" r="2.61609" fill="#FFB3AF" fill-opacity="0.32"/>
<circle cx="1412.38" cy="212.872" r="2.61609" fill="#FFB3AF" fill-opacity="0.32"/>
<circle cx="1430.13" cy="212.872" r="2.61609" fill="#FFB3AF" fill-opacity="0.32"/>
<circle cx="1323.62" cy="230.624" r="2.61609" fill="#FFB3AF" fill-opacity="0.32"/>
<circle cx="1341.37" cy="230.624" r="2.61609" fill="#FFB3AF" fill-opacity="0.32"/>
<circle cx="1359.12" cy="230.624" r="2.61609" fill="#FFB3AF" fill-opacity="0.32"/>
<circle cx="1376.87" cy="230.624" r="2.61609" fill="#FFB3AF" fill-opacity="0.32"/>
<circle cx="1394.62" cy="230.624" r="2.61609" fill="#FFB3AF" fill-opacity="0.32"/>
<circle cx="1412.38" cy="230.624" r="2.61609" fill="#FFB3AF" fill-opacity="0.32"/>
<circle cx="1430.13" cy="230.624" r="2.61609" fill="#FFB3AF" fill-opacity="0.32"/>
<circle cx="1323.62" cy="248.376" r="2.61609" fill="#FFB3AF" fill-opacity="0.32"/>
<circle cx="1341.37" cy="248.376" r="2.61609" fill="#FFB3AF" fill-opacity="0.32"/>
<circle cx="1359.12" cy="248.376" r="2.61609" fill="#FFB3AF" fill-opacity="0.32"/>
<circle cx="1376.87" cy="248.376" r="2.61609" fill="#FFB3AF" fill-opacity="0.32"/>
<circle cx="1394.62" cy="248.376" r="2.61609" fill="#FFB3AF" fill-opacity="0.32"/>
<circle cx="1412.38" cy="248.376" r="2.61609" fill="#FFB3AF" fill-opacity="0.32"/>
<circle cx="1430.13" cy="248.376" r="2.61609" fill="#FFB3AF" fill-opacity="0.32"/>
<circle cx="1323.62" cy="266.128" r="2.61609" fill="#FFB3AF" fill-opacity="0.32"/>
<circle cx="1341.37" cy="266.128" r="2.61609" fill="#FFB3AF" fill-opacity="0.32"/>
<circle cx="1359.12" cy="266.128" r="2.61609" fill="#FFB3AF" fill-opacity="0.32"/>
<circle cx="1376.87" cy="266.128" r="2.61609" fill="#FFB3AF" fill-opacity="0.32"/>
<circle cx="1394.62" cy="266.128" r="2.61609" fill="#FFB3AF" fill-opacity="0.32"/>
<circle cx="1412.38" cy="266.128" r="2.61609" fill="#FFB3AF" fill-opacity="0.32"/>
<circle cx="1430.13" cy="266.128" r="2.61609" fill="#FFB3AF" fill-opacity="0.32"/>
<circle cx="1323.62" cy="283.88" r="2.61609" fill="#FFB3AF" fill-opacity="0.32"/>
<circle cx="1341.37" cy="283.88" r="2.61609" fill="#FFB3AF" fill-opacity="0.32"/>
<circle cx="1359.12" cy="283.88" r="2.61609" fill="#FFB3AF" fill-opacity="0.32"/>
<circle cx="1376.87" cy="283.88" r="2.61609" fill="#FFB3AF" fill-opacity="0.32"/>
<circle cx="1394.62" cy="283.88" r="2.61609" fill="#FFB3AF" fill-opacity="0.32"/>
<circle cx="1412.38" cy="283.88" r="2.61609" fill="#FFB3AF" fill-opacity="0.32"/>
<circle cx="1430.13" cy="283.88" r="2.61609" fill="#FFB3AF" fill-opacity="0.32"/>
<circle cx="1323.62" cy="301.632" r="2.61609" fill="#FFB3AF" fill-opacity="0.32"/>
<circle cx="1341.37" cy="301.632" r="2.61609" fill="#FFB3AF" fill-opacity="0.32"/>
<circle cx="1359.12" cy="301.632" r="2.61609" fill="#FFB3AF" fill-opacity="0.32"/>
<circle cx="1376.87" cy="301.632" r="2.61609" fill="#FFB3AF" fill-opacity="0.32"/>
<circle cx="1394.62" cy="301.632" r="2.61609" fill="#FFB3AF" fill-opacity="0.32"/>
<circle cx="1412.38" cy="301.632" r="2.61609" fill="#FFB3AF" fill-opacity="0.32"/>
<circle cx="1430.13" cy="301.632" r="2.61609" fill="#FFB3AF" fill-opacity="0.32"/>
<circle cx="1323.62" cy="319.384" r="2.61609" fill="#FFB3AF" fill-opacity="0.32"/>
<circle cx="1341.37" cy="319.384" r="2.61609" fill="#FFB3AF" fill-opacity="0.32"/>
<circle cx="1359.12" cy="319.384" r="2.61609" fill="#FFB3AF" fill-opacity="0.32"/>
<circle cx="1376.87" cy="319.384" r="2.61609" fill="#FFB3AF" fill-opacity="0.32"/>
<circle cx="1394.62" cy="319.384" r="2.61609" fill="#FFB3AF" fill-opacity="0.32"/>
<circle cx="1412.38" cy="319.384" r="2.61609" fill="#FFB3AF" fill-opacity="0.32"/>
<circle cx="1430.13" cy="319.384" r="2.61609" fill="#FFB3AF" fill-opacity="0.32"/>
</g>
</svg>
